<?xml version="1.0" encoding="UTF-8"?>
<svg id="Layer_1" data-name="Layer 1" xmlns="http://www.w3.org/2000/svg" viewBox="0 0 240.49 137.55">
  <defs>
    <style>
      .cls-1 {
        fill: #6b7e91;
      }

      .cls-2 {
        fill: #668baa;
      }

      .cls-3 {
        fill: #3b5972;
      }

      .cls-4 {
        fill: #90bfe0;
      }
    </style>
  </defs>
  <g>
    <path class="cls-1" d="m42.19,36.2c-18.84,0-34.12,15.28-34.12,34.12s15.28,34.12,34.12,34.12,34.12-15.28,34.12-34.12-15.28-34.12-34.12-34.12Zm8.73,47.08c-4.54,3.01-9.27,2.56-10.58,2.38-.89-.12-6.97-1.03-10.85-6.61-3.08-4.44-3.65-10.21-1.59-15.08.74-1.76,2.9-5.93,7.67-7.94,6.75-2.84,13.13.99,14.81,2.12,1.32.88,6.81,4.56,7.41,11.37.51,5.84-2.74,11.01-6.88,13.75Z"/>
    <path class="cls-1" d="m28.62,40.99c-.56-3.52-1.07-4.93-.59-8.9.95-7.95,28.14-9.17,29.32-.82.76,5.36-.76,7.33-.77,9.32"/>
    <path class="cls-1" d="m56.52,99.39c.56,3.52,1.07,4.93.59,8.9-.95,7.95-28.14,9.17-29.32.82-.76-5.36.76-7.33.77-9.32"/>
    <path class="cls-1" d="m61.11,43.53c2.77-2.25,3.74-3.39,7.41-4.96,7.36-3.15,22.01,19.79,15.36,24.99-4.26,3.33-6.73,3.01-8.46,3.99"/>
    <path class="cls-1" d="m24.46,96.88c-2.77,2.25-3.74,3.39-7.41,4.96-7.36,3.15-22.01-19.79-15.36-24.99,4.26-3.33,6.73-3.01,8.46-3.99"/>
    <path class="cls-1" d="m75.05,72.66c3.34,1.27,4.81,1.53,8.02,3.92,6.42,4.78-6.07,28.97-13.9,25.83-5.02-2.01-5.98-4.31-7.69-5.32"/>
    <path class="cls-1" d="m10.52,67.75c-3.34-1.27-4.81-1.53-8.02-3.92-6.42-4.78,6.07-28.97,13.9-25.83,5.02,2.01,5.98,4.31,7.69,5.32"/>
  </g>
  <g>
    <g>
      <g>
        <path class="cls-3" d="m168.66,39.15c-19.61-.55-37.1,12.82-39.22,31.66-2.38,21.15,15.14,40.77,39.34,41.35,24.13.57,41.45-18.12,39.02-39.29-2.16-18.86-19.58-33.16-39.15-33.71Zm10.51,47.23c-5.37,3.35-11.07,2.68-12.66,2.43-1.08-.17-8.37-1.41-12.78-7.87-3.39-4.98-3.73-11.15-1.14-16.12.92-1.76,3.49-5.84,8.81-7.66,7.42-2.54,14.46,1.35,16.35,2.51,1.49.91,7.76,4.75,8.8,11.8.93,6.28-2.6,11.91-7.4,14.91Z"/>
        <path class="cls-3" d="m154.36,42.96c-.45-3.12-.92-4.36-.28-7.75,1.26-6.56,28.56-6.77,30.1.16,1.03,4.61-.46,6.29-.39,8.05"/>
        <path class="cls-3" d="m186.81,106.03c.94,4.56,1.68,6.43,1.35,11.72-.7,11.05-37.1,11.98-38.15.22-.64-7.19,1.42-9.72,1.55-12.28"/>
        <path class="cls-3" d="m188.72,46.2c2.78-1.94,3.72-2.93,7.45-4.21,7.36-2.53,25.89,19.07,19.3,24.08-4.34,3.29-7.17,2.88-9.01,3.85"/>
        <path class="cls-3" d="m146.57,101.88c-3.66,2.76-4.99,4.19-9.82,6.1-9.84,3.9-24.37-24.71-15.63-30.32,5.45-3.5,8.29-3.07,10.42-4.08"/>
        <path class="cls-3" d="m206.64,75.32c4.01,1.47,5.74,1.8,9.81,4.5,8.31,5.54-2.98,34.86-13.38,30.49-6.56-2.75-7.98-5.71-10.21-7.03"/>
        <path class="cls-3" d="m132.55,68.18c-3.67-1.41-5.31-1.73-8.65-4.28-6.54-4.99,9.86-26.9,17.78-23.95,5.14,1.92,6.02,3.99,7.78,4.95"/>
      </g>
      <g>
        <polyline class="cls-3" points="150.1 118.59 148.81 102.85 160.44 110.72"/>
        <polyline class="cls-3" points="188.16 117.75 191.25 102.17 184.14 108.35"/>
        <polyline class="cls-3" points="217.34 97.32 222.44 77.81 213.25 85.96"/>
        <polyline class="cls-3" points="220.4 46.77 216.49 64.73 202.79 46.2"/>
        <polyline class="cls-3" points="118.6 86.27 115.33 71.05 123.58 79.88"/>
        <polyline class="cls-3" points="122.81 62.43 119.45 43.93 132.51 49.08"/>
      </g>
    </g>
    <path class="cls-2" d="m220.2,63.28c-3.83-2.55-5.74-3.14-9.06-4.31-.03-1.05-.09-2.1-.21-3.16-.14-1.19-.33-2.36-.58-3.51,1.97-.64,4.78-.72,8.81-3.78,7.07-5.37-12.81-28.56-20.71-25.84-3.48,1.2-4.7,2.16-6.92,3.75-1.99-1.23-4.09-2.32-6.27-3.24.31-1.61,1.22-3.55.32-7.62-1.65-7.44-30.95-7.22-32.3-.17-.56,2.95-.34,4.39.03,6.61-2.21.76-4.34,1.69-6.37,2.78-1.31-1.15-2.89-2.77-6.98-4.3-8.49-3.17-26.09,20.35-19.08,25.7,2.65,2.02,4.31,2.73,6.59,3.58-.28,1.25-.5,2.53-.64,3.83-.14,1.25-.21,2.49-.22,3.73-2.03.47-4.71,1.07-8.7,3.63-9.38,6.03,6.21,36.73,16.77,32.54,3.89-1.54,5.66-2.79,7.97-4.57,2.28,1.73,4.78,3.22,7.43,4.51-.65,2.25-1.67,5.21-1.17,10.79.18,1.97,1.28,3.61,3.01,4.93,7.56,5.74,27.17,5.37,34.82-.23,1.84-1.35,2.99-3,3.11-4.93.29-4.6-.18-6.81-.91-10.08,2.63-1.23,5.1-2.68,7.34-4.38,1.84,1.63,3.94,4.12,9.56,6.48,11.17,4.69,23.28-26.78,14.36-32.72Zm-68.52-16.1c.98-1.89,3.74-6.27,9.46-8.22,7.96-2.72,15.52,1.45,17.55,2.69,1.6.98,8.33,5.1,9.45,12.66.99,6.74-2.79,12.78-7.94,16.01-5.76,3.6-11.88,2.87-13.59,2.61-1.16-.18-8.98-1.51-13.71-8.45-3.64-5.34-4-11.97-1.22-17.3Z"/>
    <path class="cls-4" d="m153.25,109.6c-.04.76,8.9,8.29,18.7,7.39,6.85-.63,12.22-5.22,12.05-6.14-.14-.74-3.78.96-11.33,1.3-6.58.29-11.56-.65-12.85-.91-4.65-.93-6.54-1.98-6.56-1.63Z"/>
    <path class="cls-4" d="m185.25,47.16c0-1.12-9.57-12.65-19.5-11.78-6.94.61-12.14,7.11-11.9,8.49.19,1.09,3.71-2.95,11.38-3.09,6.69-.12,11.62,1.73,12.96,2.17,4.8,1.59,7.07,4.72,7.06,4.21Z"/>
    <path class="cls-4" d="m122.55,33.2c-2.23,4.66-2.73,4.77-3.06,8.24-.11,1.17-.79,3.42,2.99,5.76,3.25,2.01,4.28,2.31,3.86,2.07,0,0,.19-.22-1.75-3.83-.53-.98-2.04-2.25-2.37-4.8"/>
    <path class="cls-4" d="m118.93,81.38c-.25,1.91,5.88,14.63,13.21,15.2,1.15.09,3.76.68,6.36-1.22,3.08-2.25,4.39-7.33,4.1-6.92-.7.98-2.25,1.6-3.85,2.59-1.87,1.15-3.25,1.53-6.09.95-1.69-.34-4.93-1.64-8.88-5.13-2.46-2.17-4.79-6-4.86-5.47Z"/>
    <path class="cls-4" d="m218.78,87.32c.21,1.24-4.88,9.53-10.96,9.9-.95.06-3.12.45-5.28-.79-2.55-1.47-3.65-4.77-3.4-4.51.58.64,1.86,1.04,3.2,1.69,1.55.75,2.7.99,5.05.62,1.4-.22,4.09-1.07,7.36-3.34,2.04-1.42,3.97-3.91,4.03-3.57Z"/>
    <path class="cls-4" d="m210.13,52.06c-.29.36,5.9-.7,8.71-3.34.62-.58,1.44-.99,1.73-3.19.34-2.6-1.58-5.72-1.64-5.41q-.49,2.68-.84,3.95c-.42,1.52-1.06,2.58-1.6,3.22-.42.5-1.52,1.2-2.7,1.83-1.4.75-2.2,1.09-3.66,2.93Z"/>
  </g>
</svg>